<svg id="visual" viewBox="0 0 960 540" width="960" height="540" xmlns="http://www.w3.org/2000/svg" xmlns:xlink="http://www.w3.org/1999/xlink" version="1.1"><rect x="0" y="0" width="960" height="540" fill="#f2f3f4"></rect><path d="M0 213L22.8 214.8C45.7 216.7 91.3 220.3 137 211C182.7 201.7 228.3 179.3 274 177.8C319.7 176.3 365.3 195.7 411.2 194.5C457 193.3 503 171.7 548.8 159.8C594.7 148 640.3 146 686 152.7C731.7 159.3 777.3 174.7 823 180.3C868.7 186 914.3 182 937.2 180L960 178L960 0L937.2 0C914.3 0 868.7 0 823 0C777.3 0 731.7 0 686 0C640.3 0 594.7 0 548.8 0C503 0 457 0 411.2 0C365.3 0 319.7 0 274 0C228.3 0 182.7 0 137 0C91.3 0 45.7 0 22.8 0L0 0Z" fill="#cccccc"></path><path d="M0 113L22.8 118.7C45.7 124.3 91.3 135.7 137 140C182.7 144.3 228.3 141.7 274 136.8C319.7 132 365.3 125 411.2 125C457 125 503 132 548.8 141.8C594.7 151.7 640.3 164.3 686 162.5C731.7 160.7 777.3 144.3 823 137C868.7 129.7 914.3 131.3 937.2 132.2L960 133L960 0L937.2 0C914.3 0 868.7 0 823 0C777.3 0 731.7 0 686 0C640.3 0 594.7 0 548.8 0C503 0 457 0 411.2 0C365.3 0 319.7 0 274 0C228.3 0 182.7 0 137 0C91.3 0 45.7 0 22.8 0L0 0Z" fill="#c3c3c0"></path><path d="M0 137L22.8 131.3C45.7 125.7 91.3 114.3 137 113.5C182.7 112.7 228.3 122.3 274 121.3C319.7 120.3 365.3 108.7 411.2 108.8C457 109 503 121 548.8 124.8C594.7 128.7 640.3 124.3 686 117.7C731.7 111 777.3 102 823 103.3C868.7 104.7 914.3 116.3 937.2 122.2L960 128L960 0L937.2 0C914.3 0 868.7 0 823 0C777.3 0 731.7 0 686 0C640.3 0 594.7 0 548.8 0C503 0 457 0 411.2 0C365.3 0 319.7 0 274 0C228.3 0 182.7 0 137 0C91.3 0 45.7 0 22.8 0L0 0Z" fill="#babab5"></path><path d="M0 53L22.8 61.7C45.7 70.3 91.3 87.7 137 92.8C182.7 98 228.3 91 274 82C319.7 73 365.3 62 411.2 57.5C457 53 503 55 548.8 62.2C594.7 69.3 640.3 81.7 686 85.7C731.7 89.7 777.3 85.3 823 80.8C868.7 76.3 914.3 71.7 937.2 69.3L960 67L960 0L937.2 0C914.3 0 868.7 0 823 0C777.3 0 731.7 0 686 0C640.3 0 594.7 0 548.8 0C503 0 457 0 411.2 0C365.3 0 319.7 0 274 0C228.3 0 182.7 0 137 0C91.3 0 45.7 0 22.8 0L0 0Z" fill="#b1b1a9"></path><path d="M0 37L22.8 40.5C45.7 44 91.3 51 137 53.8C182.7 56.7 228.3 55.3 274 54.8C319.7 54.3 365.3 54.7 411.2 53.3C457 52 503 49 548.8 43.8C594.7 38.7 640.3 31.3 686 29.5C731.7 27.7 777.3 31.3 823 31.2C868.7 31 914.3 27 937.2 25L960 23L960 0L937.2 0C914.3 0 868.7 0 823 0C777.3 0 731.7 0 686 0C640.3 0 594.7 0 548.8 0C503 0 457 0 411.2 0C365.3 0 319.7 0 274 0C228.3 0 182.7 0 137 0C91.3 0 45.7 0 22.8 0L0 0Z" fill="#a8a89e"></path></svg>